<svg xmlns="http://www.w3.org/2000/svg" viewBox="0 0 800 600" preserveAspectRatio="xMidYMid slice">
  <rect width="800" height="600" fill="#ddd8cb"/>
  <path d="M0 250 q210 54 410 12 q190 -40 390 26 l0 78 q-200 -62 -390 -22 q-200 42 -410 -8 z" fill="#a9c6d4"/>
  <rect x="470" y="330" width="210" height="150" rx="12" fill="#bcd0ab"/>
  <rect x="90" y="380" width="150" height="120" rx="10" fill="#bcd0ab"/>
  <rect x="0" y="80" width="800" height="13" fill="#f7f5ef"/>
  <rect x="0" y="184" width="800" height="20" fill="#f7f5ef"/>
  <rect x="0" y="288" width="800" height="13" fill="#f7f5ef"/>
  <rect x="0" y="392" width="800" height="20" fill="#f7f5ef"/>
  <rect x="0" y="496" width="800" height="13" fill="#f7f5ef"/>
  <rect x="100" y="0" width="18" height="600" fill="#f7f5ef"/>
  <rect x="232" y="0" width="11" height="600" fill="#f7f5ef"/>
  <rect x="364" y="0" width="11" height="600" fill="#f7f5ef"/>
  <rect x="496" y="0" width="18" height="600" fill="#f7f5ef"/>
  <rect x="628" y="0" width="11" height="600" fill="#f7f5ef"/>
  <rect x="760" y="0" width="11" height="600" fill="#f7f5ef"/>
  <rect x="130" y="110" width="130" height="90" fill="#cbc4b4"/>
  <rect x="330" y="120" width="110" height="80" fill="#cbc4b4"/>
  <rect x="560" y="120" width="120" height="80" fill="#cbc4b4"/>
  <rect x="150" y="230" width="120" height="60" fill="#cbc4b4"/>
  <path d="M400 210 a76 76 0 0 1 76 76 c0 58 -76 138 -76 138 s-76 -80 -76 -138 a76 76 0 0 1 76 -76 z" fill="#c2410c"/>
  <circle cx="400" cy="286" r="29" fill="#ffffff"/>
</svg>
